<svg width="110" height="24" fill="none" xmlns="http://www.w3.org/2000/svg"><g clip-path="url(#clip0)"><path d="M62.28 23.46a.39.39 0 01-.18.32 1.001 1.001 0 01-.38.1c-3.32.27-8.43.42-11.48-3.49C48 17.5 48.83 15 46.06 13.87a6.18 6.18 0 00-2.31-.19V21a.44.44 0 01-.1.26.62.62 0 01-.32.19c-.195.06-.396.1-.6.12a7.832 7.832 0 01-.94.05 8.26 8.26 0 01-.95-.05 3.144 3.144 0 01-.6-.12.55.55 0 01-.31-.19.43.43 0 01-.09-.26V3.67a1.289 1.289 0 011.29-1.34h5.52a6.87 6.87 0 013.5.56 5.21 5.21 0 013 4.7 5.67 5.67 0 01-.28 1.71 5.24 5.24 0 01-2.33 2.9 3.822 3.822 0 01-.54.27c-.08 0 .31.3.45.38 2.52 1.39 2.39 4.75 4.23 6.83 2.44 2.77 4.43 3.12 7.07 3.38h.36a.41.41 0 01.21.35l-.04.05zM48.84 9.12c.149-.354.22-.736.21-1.12a2.83 2.83 0 00-.43-1.6 2.33 2.33 0 00-1.41-.92 4.942 4.942 0 00-.67-.12 9.602 9.602 0 00-1 0h-1.79v5.44h2c.492.013.982-.055 1.45-.2a2.79 2.79 0 001-.56 2.24 2.24 0 00.62-.87l.02-.05zm-33 11c.005.21-.036.417-.12.61-.07.17-.18.32-.32.44-.138.118-.297.21-.47.27a2.1 2.1 0 01-.56.08H12.7a3.349 3.349 0 01-.9-.11 1.76 1.76 0 01-.7-.37 3.2 3.2 0 01-.61-.75 13.048 13.048 0 01-.67-1.21l-6-11.61V21a.38.38 0 01-.08.26.64.64 0 01-.28.21c-.174.06-.355.1-.54.12-.664.06-1.334.06-2 0a2.442 2.442 0 01-.54-.12.57.57 0 01-.26-.21A.47.47 0 010 21V3.72a1.33 1.33 0 01.41-1.05 1.48 1.48 0 011-.34H3.5c.337-.01.672.02 1 .09a2 2 0 01.69.32c.225.173.418.382.57.62.21.319.393.653.55 1l5.63 10.83V2.9a.48.48 0 01.06-.27.82.82 0 01.3-.2 2.12 2.12 0 01.55-.13h2.14c.18.017.355.06.52.13a.57.57 0 01.26.2c.05.082.078.175.08.27v17.26l-.01-.04zm19.73-5.92a8.63 8.63 0 01-.57 3.15 6.162 6.162 0 01-1.5 2.33 6.511 6.511 0 01-2.46 1.44 10.4 10.4 0 01-3.35.5 10.532 10.532 0 01-3.2-.45 6 6 0 01-2.4-1.35 5.9 5.9 0 01-1.5-2.26 8.858 8.858 0 01-.52-3.16V2.9a.41.41 0 01.09-.26.55.55 0 01.32-.19 3.19 3.19 0 01.59-.12c.31-.018.621-.018.93 0 .307-.018.614-.018.92 0 .201.02.399.06.59.12.122.03.23.096.31.19a.4.4 0 01.1.26v11.17a6.38 6.38 0 00.31 1.93c.165.506.438.97.8 1.36.347.362.77.639 1.24.81a4.83 4.83 0 003.24 0 3.211 3.211 0 001.21-.82 3.61 3.61 0 00.77-1.31c.188-.571.28-1.17.27-1.77V2.9a.41.41 0 01.09-.26.52.52 0 01.3-.19 3 3 0 01.59-.12c.31-.018.621-.018.93 0a7.67 7.67 0 01.91 0c.198.021.392.061.58.12a.55.55 0 01.31.19.39.39 0 01.09.26v11.34l.01-.04z" fill="#1E54B7"/><path d="M86.77 11.44s4.93-6.63 5.78-7.82c.15-.174.24-.391.26-.62a.65.65 0 00-.53-.6L92 2.34H89.53a1.35 1.35 0 00-.73.37c-.11.129-.21.266-.3.41L83 10.87V2.92a.47.47 0 00-.09-.28.6.6 0 00-.32-.19 2.87 2.87 0 00-.59-.12 8.12 8.12 0 00-.94 0 8.34 8.34 0 00-.94 0 3.15 3.15 0 00-.6.12.7.7 0 00-.32.19.48.48 0 00-.1.28V21a.43.43 0 00.1.27.71.71 0 00.32.21c.195.06.396.1.6.12.312.035.626.052.94.05a7.83 7.83 0 00.94-.05c.2-.02.398-.06.59-.12a.62.62 0 00.32-.21A.42.42 0 0083 21v-8.5l5.8 8.5c.073.134.172.253.29.35.18.12.385.195.6.22a11.14 11.14 0 002.39 0c.213-.019.424-.06.63-.12a.74.74 0 00.32-.21.57.57 0 00.08-.29 1.24 1.24 0 00-.07-.32l-6.27-9.19zM110 20v.73a2.09 2.09 0 01-.12.48.604.604 0 01-.18.26.433.433 0 01-.25.07H97.86a1.239 1.239 0 01-.93-.39 1.26 1.26 0 01-.36-.94v-.66a3.121 3.121 0 010-.54c.025-.17.065-.337.12-.5.09-.178.193-.349.31-.51.113-.2.253-.44.42-.72l7.75-11.81h-7.39a.53.53 0 01-.31-.08.6.6 0 01-.2-.26 1.402 1.402 0 01-.12-.47 5.76 5.76 0 010-.71c-.018-.25-.018-.5 0-.75a1.4 1.4 0 01.12-.49.46.46 0 01.2-.26.62.62 0 01.31-.08h10.53a1.2 1.2 0 01.89.39c.228.23.36.537.37.86v.67a4.54 4.54 0 010 .68 2.784 2.784 0 01-.13.57 3.117 3.117 0 01-.26.56c-.114.2-.254.43-.42.69l-7.63 11.65h8.33c.19 0 .33.12.43.36.105.39.142.797.11 1.2" fill="#47A0E2"/><path d="M66.07 17.6a5.58 5.58 0 100-11.16 5.58 5.58 0 000 11.16z" fill="#FF9500"/><path d="M63.58 16.34l4.93-8.54a4.93 4.93 0 10-4.93 8.54zM66.68 4.75c.08.69 0 1.07-.61 1.07s-.69-.45-.61-1.07c.153-.825.357-1.64.61-2.44.252.8.456 1.615.61 2.44zM68.89 5.3c-.14.68-.35 1-.91.83-.56-.17-.51-.65-.25-1.21.408-.737.855-1.451 1.34-2.14a19.02 19.02 0 01-.18 2.52z" fill="#FC0"/><path d="M70.83 6.5c-.34.6-.64.86-1.12.51-.48-.35-.29-.78.13-1.23a22.423 22.423 0 011.94-1.62c-.265.8-.582 1.581-.95 2.34zM72.31 8.24c-.52.47-.88.62-1.23.14s0-.83.51-1.13c.762-.359 1.543-.673 2.34-.94a19.944 19.944 0 01-1.62 1.93zM73.17 10.36c-.63.28-1 .31-1.21-.25-.21-.56.22-.8.83-.92A22.65 22.65 0 0175.31 9c-.686.495-1.4.95-2.14 1.36zM73.33 12.63c-.68.08-1.07 0-1.07-.61s.46-.69 1.07-.61c.828.154 1.646.358 2.45.61-.802.257-1.621.461-2.45.61zM72.791 14.85c-.68-.14-1-.35-.83-.92.17-.57.65-.51 1.21-.25.736.401 1.45.842 2.14 1.32a20.35 20.35 0 01-2.52-.15zM71.59 16.79c-.61-.35-.86-.65-.51-1.13.35-.48.78-.29 1.23.14a23.152 23.152 0 011.62 1.93c-.799-.265-1.58-.58-2.34-.94zM69.84 18.26c-.46-.51-.61-.88-.13-1.23s.83 0 1.12.51c.377.76.71 1.542 1 2.34a20.995 20.995 0 01-1.99-1.62zM67.73 19.12c-.28-.63-.31-1 .25-1.21.56-.21.8.23.91.83.111.836.171 1.677.18 2.52-.49-.685-.938-1.4-1.34-2.14zM65.46 19.29c-.08-.69 0-1.07.61-1.07s.69.45.61 1.07a22.902 22.902 0 01-.61 2.44 18.786 18.786 0 01-.61-2.44zM63.24 18.74c.14-.68.35-1 .91-.83.56.17.52.65.25 1.21a21.763 21.763 0 01-1.33 2.14 20.38 20.38 0 01.17-2.52z" fill="#FF9500"/><path d="M61.3 17.54c.34-.6.65-.86 1.13-.51.48.35.28.78-.14 1.23a21.254 21.254 0 01-1.93 1.62c.26-.8.574-1.582.94-2.34zM59.831 15.8c.51-.47.88-.62 1.22-.14.34.48 0 .83-.5 1.13-.761.359-1.542.673-2.34.94a18.508 18.508 0 011.62-1.93zM59 13.68c.63-.28 1-.31 1.2.25.2.56-.22.8-.82.92-.837.103-1.678.16-2.52.17.684-.491 1.399-.939 2.14-1.34zM58.8 11.41c.69-.08 1.07 0 1.07.61s-.46.69-1.07.61a21.014 21.014 0 01-2.45-.63 19.06 19.06 0 012.45-.59zM59.35 9.19c.67.14 1 .35.82.92-.18.57-.64.51-1.2.25A21.998 21.998 0 0156.83 9c.843.011 1.685.075 2.52.19zM60.55 7.25c.601.35.851.65.501 1.13-.35.48-.77.29-1.22-.14a21.258 21.258 0 01-1.62-1.93c.798.267 1.579.581 2.34.94zM62.29 5.78c.47.51.61.88.14 1.23S61.6 7 61.3 6.5a21.493 21.493 0 01-.94-2.34c.676.499 1.32 1.04 1.93 1.62zM64.4 4.92c.29.63.32 1-.25 1.21-.57.21-.79-.23-.91-.83a22.66 22.66 0 01-.17-2.52c.49.683.935 1.398 1.33 2.14zM66.68 4.75c.08.69 0 1.07-.61 1.07s-.69-.45-.61-1.07c.153-.825.357-1.64.61-2.44.252.8.456 1.615.61 2.44z" fill="#FC0"/></g><defs><clipPath id="clip0"><path fill="#fff" d="M0 0h110v24H0z"/></clipPath></defs></svg>